<?xml version="1.0" encoding="UTF-8"?>
<svg width="748px" height="189px" viewBox="0 0 748 189" version="1.1" xmlns="http://www.w3.org/2000/svg" xmlns:xlink="http://www.w3.org/1999/xlink">
    <title>skf-group-vector-logo</title>
    <g id="Page-1" stroke="none" stroke-width="1" fill="none" fill-rule="evenodd">
        <g id="skf-group-vector-logo" transform="translate(0.750000, 0.250000)">
            <path d="M0,0 L747,0 L747,188.5 L213.489568,188.5 C136.775073,188.491502 96.2832179,157.074836 92.014004,94.25 C87.7442126,31.4166667 57.072878,0 0,0 Z" id="Path" fill="#FFFFFF"></path>
            <path d="M644.735247,133.250962 L644.735247,129.137749 L647.477389,129.137749 C648.848461,129.137749 650.363855,129.426395 650.363855,131.086113 C650.363855,133.106639 648.848461,133.250962 647.116581,133.250962 M644.735247,134.91068 L647.044419,134.91068 L650.508178,140.61145 L652.745189,140.61145 L648.992784,134.838518 C650.941148,134.622033 652.456543,133.539609 652.456543,131.230436 C652.456543,128.632617 650.868987,127.478031 647.766036,127.478031 L642.714721,127.478031 L642.714721,140.683611 L644.735247,140.683611 L644.735247,134.91068 L644.735247,134.91068 Z M647.044419,147.033836 C654.188422,147.033836 660.25,141.549551 660.25,134.04474 C660.25,126.612091 654.188422,121.127806 647.044419,121.127806 C639.828255,121.127806 633.766677,126.612091 633.766677,134.04474 C633.766677,141.549551 639.900417,147.033836 647.044419,147.033836 M636.436658,134.04474 C636.436658,127.911001 641.127165,123.292656 647.044419,123.292656 C652.961674,123.292656 657.652181,127.911001 657.652181,134.04474 C657.652181,140.322803 652.961674,144.868987 647.044419,144.868987 C641.055003,144.868987 636.436658,140.250641 636.436658,134.04474" id="Shape" fill="#0066CC" fill-rule="nonzero"></path>
            <path d="M338.625561,147.033836 C340.790411,147.033836 342.594452,145.301956 342.594452,143.064945 L342.594452,85.1913085 C342.594452,83.0264593 340.790411,81.2224182 338.625561,81.2224182 L265.814464,81.2224182 C264.371232,81.2224182 263.144484,80.0678319 263.144484,78.6245991 L263.144484,57.5533996 C263.144484,56.1101668 264.29907,54.9555805 265.814464,54.9555805 L286.957826,54.9555805 C288.401058,54.9555805 289.627806,56.1101668 289.627806,57.5533996 L289.627806,64.120109 C289.627806,66.2849583 291.431847,68.0889994 293.596697,68.0889994 L325.347819,68.0889994 C327.512668,68.0889994 329.316709,66.3571199 329.316709,64.120109 L329.316709,45.7188903 C329.316709,43.5540411 327.512668,41.75 325.347819,41.75 L227.424471,41.75 C225.259622,41.75 223.455581,43.4818794 223.455581,45.7188903 L223.455581,90.4591084 C223.455581,92.6239577 225.259622,94.4279987 227.424471,94.4279987 L300.235568,94.4279987 C301.678801,94.4279987 302.905548,95.582585 302.905548,97.0979795 L302.905548,131.302598 C302.905548,132.745831 301.750962,133.900417 300.235568,133.900417 L252.608884,133.900417 C251.165651,133.900417 249.938903,132.745831 249.938903,131.302598 L249.938903,111.60247 C249.938903,109.43762 248.134862,107.633579 245.970013,107.633579 L214.21889,107.633579 C212.054041,107.633579 210.25,109.365459 210.25,111.60247 L210.25,143.137107 C210.25,145.301956 212.054041,147.105997 214.21889,147.105997" id="Path" fill="#0066CC" fill-rule="nonzero"></path>
            <path d="M408.766677,109.221135 C408.766677,108.860327 409.055324,108.571681 409.416132,108.571681 C409.560455,108.571681 409.77694,108.643842 409.849102,108.788165 C409.993425,108.932489 446.868024,145.590603 447.228833,145.951411 C447.445318,146.167896 448.383419,147.105997 449.970975,147.105997 L497.381174,147.105997 C499.546023,147.105997 501.350064,145.374118 501.350064,143.137107 L501.350064,111.60247 C501.350064,109.43762 499.546023,107.633579 497.381174,107.633579 L463.176555,107.633579 C461.661161,107.633579 460.650898,106.76764 460.434413,106.551155 C459.929282,106.046023 435.68297,81.871873 435.538647,81.7997114 C435.394323,81.6553881 435.322162,81.5110648 435.322162,81.3667415 C435.322162,81.1502566 435.394323,81.0059333 435.538647,80.9337716 C435.68297,80.7894484 446.940186,69.6043938 447.156671,69.3879089 C447.806126,68.7384541 448.816389,68.2333226 449.970975,68.2333226 L484.247755,68.2333226 C486.412604,68.2333226 488.216645,66.5014432 488.216645,64.2644323 L488.216645,45.8632136 C488.216645,43.6983643 486.412604,41.8943233 484.247755,41.8943233 L450.043137,41.8943233 C448.455581,41.8943233 447.517479,42.8324246 447.300994,43.0489096 C447.084509,43.2653945 410.065587,80.0678319 409.921264,80.2121552 C409.77694,80.3564785 409.632617,80.4286402 409.488294,80.4286402 C409.127486,80.4286402 408.838839,80.1399936 408.838839,79.7791854 L408.838839,45.9353752 C408.838839,43.770526 407.034798,41.9664849 404.869949,41.9664849 L366.479955,41.9664849 C364.315106,41.9664849 362.511065,43.6983643 362.511065,45.9353752 L362.511065,77.4700128 C362.511065,79.6348621 364.315106,81.4389031 366.479955,81.4389031 C367.923188,81.4389031 369.149936,82.5934894 369.149936,84.0367223 L369.149936,105.107922 C369.149936,106.551155 367.99535,107.705741 366.479955,107.705741 C364.315106,107.705741 362.511065,109.43762 362.511065,111.674631 L362.511065,143.209269 C362.511065,145.374118 364.315106,147.178159 366.479955,147.178159 L404.869949,147.178159 C407.034798,147.178159 408.838839,145.374118 408.838839,143.209269" id="Path" fill="#0066CC" fill-rule="nonzero"></path>
            <path d="M563.625561,147.033836 C565.790411,147.033836 567.594452,145.301956 567.594452,143.064945 L567.594452,111.530308 C567.594452,109.365459 565.790411,107.561418 563.625561,107.561418 C562.182328,107.561418 560.955581,106.406831 560.955581,104.963598 L560.955581,97.0979795 C560.955581,95.6547466 562.182328,94.4279987 563.625561,94.4279987 L578.130051,94.4279987 C579.573284,94.4279987 580.800032,95.582585 580.800032,97.0979795 C580.800032,99.2628287 582.604073,101.06687 584.768922,101.06687 L616.592207,101.06687 C618.757056,101.06687 620.561097,99.3349904 620.561097,97.0979795 L620.561097,78.6967607 C620.561097,76.5319115 618.757056,74.7278704 616.592207,74.7278704 L584.768922,74.7278704 C582.604073,74.7278704 580.800032,76.4597498 580.800032,78.6967607 C580.800032,80.1399936 579.645446,81.2945799 578.130051,81.2945799 L563.625561,81.2945799 C562.182328,81.2945799 560.955581,80.1399936 560.955581,78.6967607 L560.955581,57.6255613 C560.955581,56.1823284 562.182328,55.0277421 563.625561,55.0277421 L604.613374,55.0277421 C606.056607,55.0277421 607.283355,56.1823284 607.283355,57.6255613 L607.283355,64.1922707 C607.283355,66.3571199 609.087396,68.161161 611.252245,68.161161 L656.28111,68.161161 C658.445959,68.161161 660.25,66.4292816 660.25,64.1922707 L660.25,45.791052 C660.25,43.6262027 658.445959,41.8221616 656.28111,41.8221616 L525.235568,41.8221616 C523.070718,41.8221616 521.266677,43.5540411 521.266677,45.791052 L521.266677,77.3256895 C521.266677,79.4905388 523.070718,81.2945799 525.235568,81.2945799 C526.678801,81.2945799 527.905548,82.4491661 527.905548,83.892399 L527.905548,104.963598 C527.905548,106.406831 526.750962,107.561418 525.235568,107.561418 C523.070718,107.561418 521.266677,109.293297 521.266677,111.530308 L521.266677,143.064945 C521.266677,145.229795 523.070718,147.033836 525.235568,147.033836" id="Path" fill="#0066CC" fill-rule="nonzero"></path>
        </g>
    </g>
</svg>